<svg width="224" height="31" viewBox="0 0 224 31" fill="none" xmlns="http://www.w3.org/2000/svg">
<g clip-path="url(#clip0_44_1400)">
<mask id="mask0_44_1400" style="mask-type:luminance" maskUnits="userSpaceOnUse" x="0" y="0" width="224" height="31">
<path d="M224 0H0V31H224V0Z" fill="white"/>
</mask>
<g mask="url(#mask0_44_1400)">
<path d="M17.6574 19.7459C17.6522 19.9323 17.6842 20.1179 17.7514 20.2917C17.8186 20.4655 17.9197 20.6239 18.0487 20.7576C18.1777 20.8913 18.3321 20.9976 18.5026 21.0702C18.6731 21.1428 18.8563 21.1802 19.0414 21.1802C19.2265 21.1802 19.4097 21.1428 19.5802 21.0702C19.7507 20.9976 19.9051 20.8913 20.0341 20.7576C20.1631 20.6239 20.2642 20.4655 20.3314 20.2917C20.3986 20.1179 20.4306 19.9323 20.4254 19.7459V10.3939C20.4306 10.2074 20.3986 10.0218 20.3314 9.84807C20.2642 9.67429 20.1631 9.51586 20.0341 9.38214C19.9051 9.24842 19.7507 9.14212 19.5802 9.06954C19.4097 8.99696 19.2265 8.95956 19.0414 8.95956C18.8563 8.95956 18.6731 8.99696 18.5026 9.06954C18.3321 9.14212 18.1777 9.24842 18.0487 9.38214C17.9197 9.51586 17.8186 9.67429 17.7514 9.84807C17.6842 10.0218 17.6522 10.2074 17.6574 10.3939V19.7459ZM13.2423 17.9147C13.2423 18.2964 13.3928 18.6625 13.6607 18.9324C13.9286 19.2023 14.292 19.354 14.6708 19.354C15.0497 19.354 15.413 19.2023 15.6809 18.9324C15.9488 18.6625 16.0993 18.2964 16.0993 17.9147V4.07429C16.0993 3.69256 15.9488 3.32648 15.6809 3.05656C15.413 2.78664 15.0497 2.635 14.6708 2.635C14.292 2.635 13.9286 2.78664 13.6607 3.05656C13.3928 3.32648 13.2423 3.69256 13.2423 4.07429V17.9147ZM8.82727 16.854C8.82727 17.2358 8.97777 17.6018 9.24566 17.8718C9.51355 18.1417 9.87689 18.2933 10.2557 18.2933C10.6346 18.2933 10.9979 18.1417 11.2658 17.8718C11.5337 17.6018 11.6842 17.2358 11.6842 16.854V1.43929C11.6842 1.05756 11.5337 0.691475 11.2658 0.421557C10.9979 0.151639 10.6346 0 10.2557 0C9.87689 0 9.51355 0.151639 9.24566 0.421557C8.97777 0.691475 8.82727 1.05756 8.82727 1.43929V16.854ZM4.41329 17.1862C4.41329 17.5679 4.56379 17.934 4.83168 18.2039C5.09957 18.4738 5.46291 18.6255 5.84176 18.6255C6.22062 18.6255 6.58395 18.4738 6.85184 18.2039C7.11973 17.934 7.27023 17.5679 7.27023 17.1862V5.72061C7.27023 5.5316 7.23329 5.34444 7.1615 5.16982C7.08971 4.99519 6.98449 4.83653 6.85184 4.70288C6.7192 4.56923 6.56172 4.46321 6.38841 4.39088C6.2151 4.31855 6.02935 4.28132 5.84176 4.28132C5.65417 4.28132 5.46842 4.31855 5.29511 4.39088C5.1218 4.46321 4.96432 4.56923 4.83168 4.70288C4.69903 4.83653 4.59381 4.99519 4.52202 5.16982C4.45024 5.34444 4.41329 5.5316 4.41329 5.72061V17.1862ZM8.52729 30.2106C8.41243 30.4469 8.23422 30.646 8.01284 30.7855C7.79146 30.925 7.53574 30.9993 7.27463 31C7.06444 31.0004 6.85695 30.9523 6.66808 30.8594C4.60495 29.9297 2.8664 28.3973 1.67759 26.4607C0.488781 24.524 -0.0955066 22.2723 0.000403846 19.9972V14.3785C0.0105818 14.0137 0.161551 13.6673 0.421222 13.4129C0.680893 13.1585 1.02879 13.0162 1.39097 13.0162C1.75314 13.0162 2.10104 13.1585 2.36071 13.4129C2.62038 13.6673 2.77135 14.0137 2.78153 14.3785V19.9972C2.69022 21.7457 3.12946 23.4808 4.04083 24.9716C4.9522 26.4624 6.29248 27.6383 7.88338 28.3429C8.21485 28.5054 8.4688 28.7938 8.58951 29.1448C8.71022 29.4958 8.68785 29.8807 8.52729 30.215" fill="#BE2BBB"/>
<path d="M194.557 10.272C194.557 11.2905 194.098 11.7666 193.292 11.7666C192.487 11.7666 192.028 11.2894 192.028 10.272C192.028 9.2545 192.487 8.74854 193.292 8.74854C194.098 8.74854 194.557 9.2545 194.557 10.272ZM216.792 20.6658C216.792 23.7979 215.706 24.8187 213.928 24.8187C212.15 24.8187 211.066 23.799 211.066 20.6658V18.9741C211.066 15.8398 212.153 14.8212 213.928 14.8212C215.704 14.8212 216.792 15.8409 216.792 18.9741V20.6658ZM214.176 12.9811C213.553 12.956 212.937 13.1174 212.405 13.4449C211.874 13.7724 211.45 14.2514 211.189 14.8212H211.09V9.00207H209.018V26.4108H211.09V24.8187H211.189C211.45 25.3886 211.874 25.8675 212.405 26.195C212.937 26.5225 213.553 26.6839 214.176 26.6588C217.409 26.6588 218.89 24.4212 218.89 20.7909V18.8501C218.89 15.2187 217.409 12.9811 214.176 12.9811ZM204.885 20.6669C204.885 23.799 203.798 24.8198 202.023 24.8198C200.247 24.8198 199.159 23.8001 199.159 20.6669V18.9741C199.159 15.8398 200.245 14.8212 202.023 14.8212C203.8 14.8212 204.885 15.8409 204.885 18.9741V20.6669ZM202.274 12.9811C201.652 12.9559 201.036 13.1172 200.504 13.4447C199.972 13.7723 199.549 14.2513 199.288 14.8212H199.189V9.00207H197.11V26.4108H199.183V24.8187H199.282C199.543 25.3886 199.967 25.8677 200.498 26.1952C201.03 26.5227 201.646 26.6841 202.269 26.6588C205.501 26.6588 206.983 24.4212 206.983 20.7909V18.8501C206.983 15.2187 205.501 12.9822 202.269 12.9822M192.256 13.2269H194.33V26.4019H192.256V13.2269ZM187.52 13.2269H189.594V26.4019H187.52V24.7191H187.422C187.139 25.3265 186.682 25.8352 186.111 26.1806C185.54 26.5259 184.879 26.6924 184.214 26.6588C181.77 26.6588 180.265 25.266 180.265 22.1571V13.2269H182.363V21.8626C182.363 23.9762 183.228 24.8962 184.781 24.8962C186.286 24.8962 187.52 23.8765 187.52 21.3157V13.2269ZM173.085 24.8187C171.308 24.8187 170.221 23.799 170.221 20.6658V18.9741C170.221 15.8398 171.308 14.8212 173.085 14.8212C174.862 14.8212 175.949 15.8409 175.949 18.9741V20.6669C175.949 23.799 174.862 24.8198 173.085 24.8198M175.924 14.8223H175.823C175.559 14.2547 175.136 13.7778 174.605 13.4506C174.075 13.1235 173.461 12.9606 172.839 12.9822C169.605 12.9822 168.125 15.2198 168.125 18.8501V20.7898C168.125 24.4201 169.605 26.6577 172.839 26.6577C173.461 26.6795 174.075 26.5166 174.605 26.1895C175.136 25.8623 175.56 25.3853 175.823 24.8176H175.924V30.6367H177.998V13.2269H175.924V14.8223ZM166.556 21.8106C166.556 24.9195 164.433 26.6599 161.172 26.6599C158.11 26.6599 155.593 25.1675 155.273 21.8361H157.567C157.612 22.2634 157.74 22.6776 157.944 23.0546C158.149 23.4316 158.426 23.764 158.759 24.0323C159.092 24.3006 159.475 24.4996 159.885 24.6177C160.295 24.7358 160.724 24.7706 161.147 24.7202C163.345 24.7202 164.334 23.4016 164.334 21.9357C164.334 16.9857 155.543 19.8465 155.543 13.3554C155.543 10.5698 157.741 8.75407 160.801 8.75407C163.768 8.75407 166.231 10.221 166.379 13.6532H164.083C164.08 13.2332 163.989 12.8186 163.817 12.4362C163.645 12.0538 163.395 11.712 163.083 11.4331C162.771 11.1542 162.405 10.9443 162.008 10.8169C161.611 10.6895 161.191 10.6476 160.777 10.6938C158.678 10.6938 157.765 11.9371 157.765 13.2557C157.765 17.6322 166.556 15.046 166.556 21.8106ZM150.073 22.7805C150.073 25.318 148.199 26.6555 145.458 26.6555C142.694 26.6555 140.869 25.462 140.72 22.7805H142.794C142.867 24.3969 144.053 24.9195 145.459 24.9195C146.866 24.9195 148.002 24.2972 148.002 22.9266C148.002 19.7159 140.87 21.9302 140.87 16.7344C140.87 14.5699 142.449 12.9789 145.336 12.9789C147.974 12.9789 149.732 14.2975 149.927 16.8539H147.854C147.843 16.5413 147.767 16.2345 147.632 15.9532C147.496 15.6719 147.303 15.4224 147.066 15.2208C146.829 15.0193 146.552 14.8701 146.254 14.7829C145.956 14.6958 145.643 14.6726 145.335 14.7149C143.83 14.7149 142.891 15.4113 142.891 16.7299C142.891 19.8388 150.074 17.9234 150.074 22.7727M138.971 13.2269H139.613V15.2652H139.092C137.018 15.2652 135.66 16.3092 135.66 19.0715V26.4075H133.587V13.2269H135.66V15.5896H135.76C135.949 14.8866 136.37 14.2694 136.953 13.8398C137.537 13.4103 138.249 13.1941 138.971 13.2269ZM126.565 14.8212C128.244 14.8212 129.155 15.8176 129.179 18.8501H123.708C123.737 15.8176 124.816 14.8212 126.565 14.8212ZM126.565 12.9811C123.332 12.9811 121.604 15.3183 121.604 18.849V20.7887C121.604 24.419 123.331 26.6566 126.565 26.6566C127.687 26.7258 128.793 26.3601 129.656 25.6342C130.519 24.9084 131.074 23.8775 131.207 22.7528H129.084C129.015 23.3605 128.713 23.9171 128.242 24.3032C127.772 24.6894 127.17 24.8744 126.565 24.8187C124.788 24.8187 123.703 23.799 123.703 20.6658V20.4909H131.285V18.8501C131.285 15.3183 129.804 12.9822 126.571 12.9822M118.901 13.2269H120.998L115.199 30.6356H113.05L114.508 26.5126L110.261 13.2269H112.458L115.593 23.4979H115.692L118.901 13.2269ZM105.3 8.99875H108.816V26.4108H106.618V11.4145H106.495L102.079 23.5234H99.3878L95.02 11.4101H94.8959V26.4108H92.7213V9.00207H96.4122L100.768 21.0943H100.892L105.3 8.99875ZM83.2263 8.99875H85.2998V26.4097H83.2263V8.99875ZM78.9409 20.6636C78.9409 23.7957 77.8542 24.8165 76.0774 24.8165C74.3006 24.8165 73.2138 23.7968 73.2138 20.6636V18.9741C73.2138 15.8398 74.2995 14.8212 76.0774 14.8212C77.8553 14.8212 78.9409 15.8409 78.9409 18.9741V20.6636ZM76.0741 12.9811C72.8402 12.9811 71.1129 15.2187 71.1129 18.849V20.7887C71.1129 24.419 72.8391 26.6566 76.0741 26.6566C79.309 26.6566 81.0353 24.419 81.0353 20.7887V18.8501C81.0353 15.2187 79.3079 12.9811 76.0741 12.9811ZM67.1351 13.2269H69.9492V15.067H67.1351V22.3531C67.1351 24.2685 67.6296 24.6659 68.8932 24.6659C69.2383 24.6659 69.6338 24.6161 69.9547 24.5917V26.3831C69.5293 26.462 69.0982 26.5053 68.6658 26.5126C66.0989 26.5126 65.0616 25.493 65.0616 22.6819V15.0703H62.864V13.2269H65.0616V9.00207H67.1351V13.2269ZM62.3519 22.776C62.3519 25.3136 60.4751 26.651 57.7369 26.651C54.9722 26.651 53.146 25.4575 52.9976 22.776H55.0711C55.1447 24.3925 56.3293 24.915 57.7369 24.915C59.1445 24.915 60.2795 24.2928 60.2795 22.9222C60.2795 19.7115 53.146 21.9257 53.146 16.7299C53.146 14.5655 54.7261 12.9745 57.6138 12.9745C60.251 12.9745 62.0091 14.2931 62.2058 16.8495H60.1301C60.1194 16.5369 60.0438 16.2301 59.9081 15.9488C59.7724 15.6675 59.5797 15.418 59.3424 15.2164C59.105 15.0148 58.8283 14.8657 58.5302 14.7785C58.2321 14.6914 57.9192 14.6682 57.6116 14.7105C56.1062 14.7105 55.1689 15.4069 55.1689 16.7255C55.1689 19.8344 62.3519 17.919 62.3519 22.7683M51.0758 10.272C51.0758 11.2905 50.6165 11.7666 49.8099 11.7666C49.0034 11.7666 48.5452 11.2894 48.5452 10.272C48.5452 9.2545 49.0045 8.74854 49.8099 8.74854C50.6154 8.74854 51.0758 9.2545 51.0758 10.272ZM48.7759 13.2269H50.8494V26.4019H48.7759V13.2269ZM46.2904 13.2269H46.9321V15.2652H46.4135C44.34 15.2652 42.9818 16.3092 42.9818 19.0715V26.4075H40.9094V13.2269H42.9818V15.5896H43.0807C43.2696 14.8868 43.6904 14.2699 44.2739 13.8404C44.8573 13.411 45.5685 13.1946 46.2904 13.2269ZM36.7537 21.5072C36.7537 23.6617 35.0692 24.4666 32.6122 24.4666H29.7882V18.1947H32.6518C35.0692 18.1947 36.7537 19.0051 36.7537 21.2371V21.5072ZM29.7882 10.9628H32.3276C34.745 10.9628 35.9812 11.8862 35.9812 13.5403V13.7141C35.9812 15.7069 34.2681 16.3502 32.0188 16.3502H29.7882V10.9628ZM35.2032 17.1019V17.0156C36.9998 16.3934 38.1129 15.305 38.1129 13.362V13.0631C38.1129 10.8322 36.3131 8.99764 32.643 8.99764H27.5664V26.4108H33.0133C36.5812 26.4108 39.0294 24.6039 39.0294 21.7121V21.5371C39.0576 20.4504 38.6802 19.3925 37.9718 18.5725C37.2634 17.7526 36.2754 17.2302 35.2032 17.1086M219.39 12.5228V9.40396H220.327V9.00207H218.008V9.40396H218.936V12.5195L219.39 12.5228ZM224.005 12.5228V9.00207H223.262L222.399 11.7256H222.374L221.521 9.00207H220.752V12.5195H221.192V9.48921H221.217L222.164 12.5195H222.583L223.535 9.48921H223.561V12.5195L224.005 12.5228Z" fill="#595454"/>
</g>
</g>
<defs>
<clipPath id="clip0_44_1400">
<rect width="224" height="31" fill="white"/>
</clipPath>
</defs>
</svg>
