<svg width="186" height="202" viewBox="0 0 186 202" fill="none" xmlns="http://www.w3.org/2000/svg">
<g clip-path="url(#clip0_31_654)">
<g opacity="0.6">
<path d="M167 113.5C167 116.12 165.94 118.49 164.22 120.21C162.5 121.93 160.12 123 157.5 123H129.66V115.88C129.66 110.2 124.85 105.63 119.09 106.01C116.73 106.17 114.63 107.18 113.04 108.73C109.38 110.28 106.88 114.04 106.88 118.23V123H29.5C24.25 123 20 118.74 20 113.5C20 110.87 21.06 108.5 22.78 106.78C24.5 105.06 26.88 104 29.5 104H157.5C162.74 104 167 108.25 167 113.5Z" fill="#8DCFE2"/>
</g>
<g opacity="0.6">
<path d="M89 33V79C89 80.12 88.82 81.19 88.47 82.19C88.2 83.02 87.81 83.8 87.34 84.52C87.27 84.62 87.2 84.72 87.13 84.81C86.42 85.81 85.53 86.67 84.5 87.34C82.92 88.39 81.03 89 79 89H32C26.47 89 22 84.52 22 79V33C22 27.48 26.47 23 32 23H79C84.52 23 89 27.48 89 33Z" fill="#8DCFE2"/>
</g>
<g opacity="0.6">
<path d="M129.5 22C120.81 22 113.75 29.12 113.75 37.87C113.75 46.62 120.81 53.74 129.5 53.74C138.19 53.74 145.25 46.62 145.25 37.87C145.25 29.12 138.18 22 129.5 22ZM136.5 60.79H122.5C108.99 60.79 98 71.86 98 85.47V89H161V85.47C161 71.86 150 60.79 136.5 60.79Z" fill="#8DCFE2"/>
</g>
<path d="M173 0H13C5.83 0 0 5.83 0 13V128C0 135.17 5.83 141 13 141H106.88V134H13C9.69 134 7 131.31 7 128V13C7 9.69 9.69 7 13 7H173C176.3 7 179 9.69 179 13V128C179 131.31 176.3 134 173 134H154.86C155.93 135.25 156.68 136.77 157.02 138.44C158.07 137.94 159.21 137.62 160.43 137.54C163.71 137.33 166.67 138.72 168.63 141H173C180.16 141 186 135.17 186 128V13C186 5.83 180.16 0 173 0Z" fill="#083D5D"/>
<path d="M117 72.09C116.84 72.03 116.68 72 116.5 72H115.5C114.68 72 114 72.68 114 73.5V92.5C114 93.33 114.68 94 115.5 94H116.5C117.32 94 118 93.33 118 92.5V73.5C118 72.85 117.58 72.29 117 72.09ZM100.7 97.87L87.34 84.52L87.26 84.44C87.18 84.36 87.09 84.29 87 84.24C86.42 83.86 85.64 83.93 85.14 84.44L84.43 85.15C83.85 85.73 83.85 86.69 84.43 87.27L97.87 100.71C98.45 101.29 99.41 101.29 99.99 100.71L100.7 99.99C100.99 99.7 101.14 99.31 101.14 98.92C101.14 98.53 100.99 98.16 100.7 97.87ZM146.23 83.69L145.52 82.98C145.32 82.77 145.06 82.64 144.8 82.58C144.31 82.46 143.78 82.6 143.4 82.98L138.83 87.55L129.96 96.41C129.38 96.99 129.38 97.95 129.96 98.53L130.67 99.24C131.25 99.82 132.21 99.82 132.79 99.24L146.23 85.81C146.81 85.23 146.81 84.27 146.23 83.69ZM92.5 114H73.5C72.67 114 72 114.67 72 115.5V116.5C72 117.33 72.68 118 73.5 118H92.5C93.32 118 94 117.33 94 116.5V115.5C94 114.68 93.32 114 92.5 114ZM158.5 114H139.5C138.67 114 138 114.67 138 115.5V116.5C138 117.33 138.68 118 139.5 118H158.5C159.32 118 160 117.33 160 116.5V115.5C160 114.68 159.32 114 158.5 114Z" fill="white"/>
<path d="M119.5 70H118.5C117.68 70 117 70.68 117 71.5V90.5C117 91.15 117.42 91.71 118 91.91C118.16 91.97 118.32 92 118.5 92H119.5C120.32 92 121 91.33 121 90.5V71.5C121 70.67 120.33 70 119.5 70ZM103.7 95.87L90.26 82.44C89.77 81.95 89.04 81.87 88.47 82.19C88.35 82.26 88.24 82.34 88.14 82.44L87.43 83.15C87.13 83.45 86.99 83.84 87 84.24C87 84.43 87.04 84.63 87.13 84.81C87.19 84.98 87.3 85.14 87.43 85.27L100.87 98.71C100.95 98.79 101.04 98.87 101.14 98.92C101.72 99.28 102.49 99.21 102.99 98.71L103.7 97.99C104.28 97.41 104.28 96.45 103.7 95.87ZM150.57 83.14L149.86 82.43C149.28 81.84 148.32 81.84 147.74 82.43L146.14 84.03L141.17 89L134.3 95.86C133.72 96.44 133.72 97.4 134.3 97.98L135.01 98.69C135.22 98.9 135.47 99.03 135.74 99.09C136.23 99.2 136.76 99.06 137.13 98.69L150.57 85.26C151.15 84.68 151.15 83.72 150.57 83.14ZM95.5 112H76.5C75.67 112 75 112.67 75 113.5V114.5C75 115.33 75.68 116 76.5 116H95.5C96.32 116 97 115.33 97 114.5V113.5C97 112.68 96.32 112 95.5 112ZM161.5 112H142.5C141.67 112 141 112.67 141 113.5V114.5C141 115.33 141.68 116 142.5 116H161.5C162.32 116 163 115.33 163 114.5V113.5C163 112.68 162.32 112 161.5 112Z" fill="#F26425"/>
<path d="M168.63 141C166.67 138.72 163.71 137.33 160.43 137.54C159.21 137.62 158.07 137.94 157.02 138.44C156.68 136.77 155.93 135.25 154.86 134C152.92 131.7 149.94 130.3 146.65 130.52C145.22 130.62 143.89 131.03 142.71 131.69C141.17 127.86 137.3 125.21 132.87 125.51C131.73 125.59 130.65 125.88 129.66 126.32V115.88C129.66 110.2 124.85 105.63 119.09 106.01C116.73 106.17 114.63 107.18 113.04 108.73C111.08 110.63 109.88 113.33 109.88 116.23V153.15L106.88 149.38L105.35 147.46C103.8 145.37 101.53 144.02 98.9498 143.66C96.3498 143.3 93.7698 143.99 91.6998 145.6C91.4098 145.83 91.1398 146.07 90.8798 146.33C87.6298 149.51 87.0398 154.66 89.6198 158.52L115.2 200.56C115.74 201.46 116.72 202 117.76 202H157.97C159.01 202 159.98 201.46 160.53 200.57L170.55 184.29C170.84 183.82 170.99 183.27 170.99 182.72V147.41C170.99 144.96 170.1 142.73 168.63 141ZM156.3 196H119.45L94.7098 155.34L94.6798 155.29C93.7098 153.78 93.8398 151.73 95.1698 150.51C95.9798 149.77 97.0498 149.44 98.1198 149.59C99.0998 149.73 99.9598 150.24 100.54 151.04L109.11 161.8C110.19 163.15 112.18 163.32 113.46 162.16L114.88 160.88C115.51 160.31 115.87 159.5 115.87 158.65V115.86C115.87 113.45 118.08 111.54 120.58 112.05C122.4 112.42 123.65 114.11 123.65 115.97V153.98C123.65 155.08 124.55 155.98 125.65 155.98H127.65C128.75 155.98 129.65 155.08 129.65 153.98V135.35C129.65 134.87 129.74 134.42 129.9 134C130.54 132.28 132.35 131.13 134.36 131.54C135.68 131.81 136.71 132.78 137.17 134C137.34 134.46 137.43 134.95 137.43 135.46V153.98C137.43 155.08 138.33 155.98 139.43 155.98H141.43C142.53 155.98 143.43 155.08 143.43 153.98V140.37C143.43 137.96 145.64 136.05 148.14 136.56C149.96 136.93 151.21 138.62 151.21 140.48V159.98C151.21 161.08 152.11 161.98 153.21 161.98H155.21C156.31 161.98 157.21 161.08 157.21 159.98V147.39C157.21 144.98 159.42 143.07 161.92 143.58C163.74 143.95 164.99 145.64 164.99 147.5V181.87L156.3 196Z" fill="#F26425"/>
</g>
<defs>
<clipPath id="clip0_31_654">
<rect width="186" height="202" fill="white"/>
</clipPath>
</defs>
</svg>
